<mxfile host="app.diagrams.net" modified="2023-05-26T01:26:05.249Z" agent="Mozilla/5.0 (Windows NT 10.0; Win64; x64) AppleWebKit/537.36 (KHTML, like Gecko) Chrome/112.0.0.0 Safari/537.36 OPR/98.0.0.0 (Edition std-1)" etag="IfPJ7nhPvO5ob50S-kde" version="21.3.4" type="onedrive">
  <diagram name="Página-1" id="zYu2pd0pgNgn6TaWq9g8">
    <mxGraphModel grid="1" page="1" gridSize="10" guides="1" tooltips="1" connect="1" arrows="1" fold="1" pageScale="1" pageWidth="827" pageHeight="1169" math="0" shadow="0">
      <root>
        <mxCell id="0" />
        <mxCell id="1" parent="0" />
        <mxCell id="H212tu0oI8DaGEIZ-JmD-1" style="edgeStyle=orthogonalEdgeStyle;rounded=0;orthogonalLoop=1;jettySize=auto;html=1;entryX=0.5;entryY=0;entryDx=0;entryDy=0;" edge="1" parent="1" source="H212tu0oI8DaGEIZ-JmD-2" target="H212tu0oI8DaGEIZ-JmD-4">
          <mxGeometry relative="1" as="geometry" />
        </mxCell>
        <mxCell id="H212tu0oI8DaGEIZ-JmD-2" value="Início" style="ellipse;whiteSpace=wrap;html=1;" vertex="1" parent="1">
          <mxGeometry x="335" y="310" width="120" height="80" as="geometry" />
        </mxCell>
        <mxCell id="H212tu0oI8DaGEIZ-JmD-3" style="edgeStyle=orthogonalEdgeStyle;rounded=0;orthogonalLoop=1;jettySize=auto;html=1;" edge="1" parent="1" source="H212tu0oI8DaGEIZ-JmD-4" target="H212tu0oI8DaGEIZ-JmD-7">
          <mxGeometry relative="1" as="geometry" />
        </mxCell>
        <mxCell id="H212tu0oI8DaGEIZ-JmD-4" value="dia, mes, ano" style="shape=parallelogram;perimeter=parallelogramPerimeter;whiteSpace=wrap;html=1;fixedSize=1;" vertex="1" parent="1">
          <mxGeometry x="295" y="450" width="200" height="60" as="geometry" />
        </mxCell>
        <mxCell id="H212tu0oI8DaGEIZ-JmD-5" style="edgeStyle=orthogonalEdgeStyle;rounded=0;orthogonalLoop=1;jettySize=auto;html=1;entryX=0.5;entryY=0;entryDx=0;entryDy=0;" edge="1" parent="1" source="H212tu0oI8DaGEIZ-JmD-7" target="H212tu0oI8DaGEIZ-JmD-11">
          <mxGeometry relative="1" as="geometry" />
        </mxCell>
        <mxCell id="H212tu0oI8DaGEIZ-JmD-6" style="edgeStyle=orthogonalEdgeStyle;rounded=0;orthogonalLoop=1;jettySize=auto;html=1;entryX=0.5;entryY=0;entryDx=0;entryDy=0;" edge="1" parent="1" source="H212tu0oI8DaGEIZ-JmD-7" target="H212tu0oI8DaGEIZ-JmD-9">
          <mxGeometry relative="1" as="geometry" />
        </mxCell>
        <mxCell id="H212tu0oI8DaGEIZ-JmD-7" value="&lt;font style=&quot;font-size: 10px;&quot;&gt;(dia&amp;gt;0)e (dia&amp;lt;31) e (mes&amp;gt;0) e &lt;br&gt;(mes&amp;lt;12) e (ano&amp;lt;=2023)&lt;/font&gt;" style="rhombus;whiteSpace=wrap;html=1;" vertex="1" parent="1">
          <mxGeometry x="270" y="580" width="250" height="80" as="geometry" />
        </mxCell>
        <mxCell id="H212tu0oI8DaGEIZ-JmD-8" style="edgeStyle=orthogonalEdgeStyle;rounded=0;orthogonalLoop=1;jettySize=auto;html=1;" edge="1" parent="1" source="H212tu0oI8DaGEIZ-JmD-9" target="H212tu0oI8DaGEIZ-JmD-12">
          <mxGeometry relative="1" as="geometry" />
        </mxCell>
        <mxCell id="H212tu0oI8DaGEIZ-JmD-9" value="&lt;div&gt;(&quot;A data é válida!!&quot;)&lt;/div&gt;" style="shape=document;whiteSpace=wrap;html=1;boundedLbl=1;" vertex="1" parent="1">
          <mxGeometry x="140" y="730" width="160" height="80" as="geometry" />
        </mxCell>
        <mxCell id="H212tu0oI8DaGEIZ-JmD-10" style="edgeStyle=orthogonalEdgeStyle;rounded=0;orthogonalLoop=1;jettySize=auto;html=1;" edge="1" parent="1" source="H212tu0oI8DaGEIZ-JmD-11" target="H212tu0oI8DaGEIZ-JmD-12">
          <mxGeometry relative="1" as="geometry" />
        </mxCell>
        <mxCell id="H212tu0oI8DaGEIZ-JmD-11" value="&lt;font style=&quot;font-size: 10px;&quot;&gt;(&quot;A data é inválida!! Tente novamente.&quot;)&lt;/font&gt;" style="shape=document;whiteSpace=wrap;html=1;boundedLbl=1;" vertex="1" parent="1">
          <mxGeometry x="500" y="730" width="170" height="80" as="geometry" />
        </mxCell>
        <mxCell id="H212tu0oI8DaGEIZ-JmD-12" value="Fim" style="ellipse;whiteSpace=wrap;html=1;" vertex="1" parent="1">
          <mxGeometry x="340" y="860" width="120" height="80" as="geometry" />
        </mxCell>
      </root>
    </mxGraphModel>
  </diagram>
</mxfile>
